<svg xmlns="http://www.w3.org/2000/svg" xmlns:xlink="http://www.w3.org/1999/xlink" width="1145" height="773" viewBox="0 0 1145 773">
  <defs>
    <clipPath id="clip-iPhone_XR_XS_Max_11_2">
      <rect width="1145" height="773"/>
    </clipPath>
  </defs>
  <g id="iPhone_XR_XS_Max_11_2" data-name="iPhone XR, XS Max, 11 – 2" clip-path="url(#clip-iPhone_XR_XS_Max_11_2)">
    <rect width="1145" height="773" fill="#fff"/>
    <g id="_25777" data-name="25777" transform="translate(552.465 1644.627)">
      <path id="Path_1" data-name="Path 1" d="M19.8-1277.62a21.493,21.493,0,0,0-2.727.241,19.845,19.845,0,0,0-11.82,6.723A23.147,23.147,0,0,0,3.3-1268a18.955,18.955,0,0,0-2.727,8.446,26.841,26.841,0,0,0,.016,3.171,18.54,18.54,0,0,0,1.664,6.254,19.276,19.276,0,0,0,6.062,7.446,20.931,20.931,0,0,0,7.967,3.662,16.441,16.441,0,0,0,4.129.339,21.284,21.284,0,0,0,5.3-.549,20.727,20.727,0,0,0,5.646-2.363,19.9,19.9,0,0,0,5.017-4.448,18.866,18.866,0,0,0,4.119-10.278c.053-.659.053-2.768,0-3.323a19.609,19.609,0,0,0-1.429-5.882,19.128,19.128,0,0,0-5.223-7.229,15.731,15.731,0,0,0-1.3-1.043,19.813,19.813,0,0,0-10.009-3.759C22.041-1277.611,20.48-1277.641,19.8-1277.62Zm-.059.592c.275.018.873.046,1.329.061a19.7,19.7,0,0,1,3.813.293q.882.256.588,1c-.078.2-.128.241-.4.3a5.126,5.126,0,0,1-2.1-.091c-.335-.058-.716-.119-.845-.134s-.347-.055-.485-.079a7.077,7.077,0,0,0-2.408.159,6.1,6.1,0,0,1-1.267.116,2.431,2.431,0,0,1-1.317-.238c-.307-.149-.31-.155-.138-.5C16.886-1276.87,17.868-1277.144,19.742-1277.028Zm-4.354.951a1.262,1.262,0,0,1,.222,1.68,7.8,7.8,0,0,1-1.373,1.692,7.367,7.367,0,0,0-1.173,1.46,3.7,3.7,0,0,1-1.677,1.473,12.546,12.546,0,0,1-2.674.808,11.321,11.321,0,0,0-1.8.54.767.767,0,0,1-.472.11.686.686,0,0,1-.563-.341,2.079,2.079,0,0,1-.3-1.329c.038-.256.044-.274.291-.61a13.723,13.723,0,0,1,3.431-3.1,11.7,11.7,0,0,1,1.235-.774c.172-.092.554-.3.845-.467a13.641,13.641,0,0,1,2.121-1.07,4.682,4.682,0,0,1,1.473-.29l.181,0Zm12,.183a14.764,14.764,0,0,1,2.48,1.049,18.467,18.467,0,0,1,2.571,1.644c.122.1.579.466,1.017.811,1.47,1.146,2.014,1.753,2.29,2.543a2.922,2.922,0,0,1-.013,1.671.639.639,0,0,1-.4.387c-.128.037-.16.03-.375-.046-.128-.046-.938-.314-1.8-.595a15.34,15.34,0,0,1-3.2-1.268,4.95,4.95,0,0,1-1.523-1.271,9.755,9.755,0,0,0-1.082-1.348c-1.173-1.32-1.479-1.823-1.483-2.439a.768.768,0,0,1,.094-.472,1.708,1.708,0,0,1,.6-.659C26.845-1276.077,26.795-1276.077,27.386-1275.894Zm-6.037.8c.369.021.932.058,1.251.073a4.213,4.213,0,0,1,1.264.18,4.463,4.463,0,0,1,1.742,1.131,11.425,11.425,0,0,1,1.476,1.781c.707.96.954,1.281,1.214,1.582a.782.782,0,0,1,.244.409,2.845,2.845,0,0,1-.779,2.281,18.416,18.416,0,0,1-1.282,1.433,14.588,14.588,0,0,0-1.113,1.232c-.185.238-.185.241-.357.259-.094.012-1.967.031-4.16.046l-3.988.024-.25-.122c-1.354-.656-2.508-1.985-3.653-4.217l-.269-.525.166-.348a13.881,13.881,0,0,1,3.5-4.412,3.285,3.285,0,0,1,1.714-.716A12.215,12.215,0,0,1,21.349-1275.089Zm-9.637,6.11a2.8,2.8,0,0,1,1.461,1.064,13.253,13.253,0,0,1,1.217,1.866,14.293,14.293,0,0,0,.973,1.528l.138.171-.231.714c-.541,1.661-1.5,4.314-2.352,6.528a2.675,2.675,0,0,1-1.576,1.433,12.769,12.769,0,0,1-2.13.555,9.422,9.422,0,0,0-1.389.375.944.944,0,0,1-.66.083,3.276,3.276,0,0,1-1.533-1.089,14.987,14.987,0,0,1-1.592-2.525c-.185-.326-.454-.768-.6-.982-.3-.445-.294-.406-.216-1.128a14.42,14.42,0,0,1,1.658-5.238c.144-.277.319-.622.388-.768.51-1.055,1.57-1.707,3.528-2.174a12.981,12.981,0,0,1,2.371-.469A1.922,1.922,0,0,1,11.713-1268.979Zm19.045.152a9.818,9.818,0,0,1,2.477.976A10.057,10.057,0,0,0,35-1267.1a3.265,3.265,0,0,1,.325.1,12.031,12.031,0,0,1,.938,1.528,13.973,13.973,0,0,1,1.317,3.68,2.688,2.688,0,0,1-.016,1.628,11.024,11.024,0,0,1-1.5,3.092c-.7,1.125-1.079,1.747-1.264,2.079l-.169.311-.166.018a3.27,3.27,0,0,1-.832-.076,13.2,13.2,0,0,0-2.064-.552,7.875,7.875,0,0,1-2.9-.994,4.221,4.221,0,0,1-1.045-1.61,15.926,15.926,0,0,1-.669-2.226,15.092,15.092,0,0,0-.776-2.333,2.612,2.612,0,0,1-.3-1.073,2.8,2.8,0,0,1,.369-1.524,9.58,9.58,0,0,1,1.539-2.037c.344-.393.71-.832.816-.976a1.624,1.624,0,0,1,.691-.613A2.179,2.179,0,0,1,30.758-1268.826Zm-25.526.079a.6.6,0,0,1,.244.424,5.121,5.121,0,0,1-1.135,2.744,6.484,6.484,0,0,0-1.054,2.9,9.279,9.279,0,0,1-.763,2.805,3.831,3.831,0,0,1-.663.951,2.431,2.431,0,0,1-.294.2l-.188.11-.116-.113a.965.965,0,0,1-.269-.775,6.167,6.167,0,0,1,.322-1.915c.128-.512.247-1.043.263-1.177a20.222,20.222,0,0,1,.773-2.387,10.94,10.94,0,0,1,2.139-3.647l.2-.207.225.012A.552.552,0,0,1,5.232-1268.747Zm32.022.805c.3.524.87,1.64,1.088,2.134a17.885,17.885,0,0,1,1.648,6.479,7.127,7.127,0,0,1-.028,1.448,3.584,3.584,0,0,1-.613-.585,7.627,7.627,0,0,1-1.2-3.211,13.81,13.81,0,0,0-.457-1.652c-.075-.2-.138-.384-.138-.4a9.622,9.622,0,0,0-.785-1.778c-.91-1.772-.91-2.519-.006-2.875a.458.458,0,0,1,.2-.052C36.973-1268.424,37.107-1268.2,37.254-1267.942Zm-13.137,3.717a2.163,2.163,0,0,1,1.461,1.146,2.976,2.976,0,0,1,.163.531c.138.6.357,1.32.86,2.808a22.472,22.472,0,0,1,1,3.421l.059.329-.332.3c-.8.723-1.648,1.4-3.569,2.857-.748.567-1.6,1.216-1.892,1.448-.629.491-.694.534-.951.6a1.1,1.1,0,0,1-.691-.058,3.555,3.555,0,0,1-1.17-.781,14.559,14.559,0,0,0-2.828-2.064c-.475-.286-.992-.607-1.148-.714a4.956,4.956,0,0,1-1.673-1.738c-.219-.427-.219-.36.044-1.085.128-.351.388-1.07.579-1.6.532-1.488.866-2.406,1.1-2.988a3.932,3.932,0,0,0,.231-.729,1.832,1.832,0,0,1,.816-1.372c.554-.326,1.245-.4,3.081-.3a13.33,13.33,0,0,0,2.471-.015A9.089,9.089,0,0,1,24.118-1264.225Zm14.35,5.318a6.026,6.026,0,0,1,1.373,4.125,6.422,6.422,0,0,1-.547,2.025,24.55,24.55,0,0,1-1.336,3.278,9.475,9.475,0,0,1-1.511,2.247c-.172.183-.216.213-.378.253a1.769,1.769,0,0,1-1.614-.29,1.415,1.415,0,0,1-.228-.329.968.968,0,0,1-.1-.6,2.506,2.506,0,0,1,.1-.777,11.9,11.9,0,0,0,.338-2.3c.044-.469.1-1.018.128-1.22a6.433,6.433,0,0,1,.916-2.765,9.274,9.274,0,0,0,.738-1.4,6.153,6.153,0,0,1,1.3-2.147,1.557,1.557,0,0,1,.6-.366C38.258-1259.164,38.358-1259.045,38.468-1258.908ZM3-1258.554a2.92,2.92,0,0,1,.829.717,15.176,15.176,0,0,1,1.048,1.589c.253.418.544.872.647,1.006a4.3,4.3,0,0,1,.8,2.009,6.507,6.507,0,0,1,.053,1.146,15.235,15.235,0,0,1-.131,2.028c-.069.671-.138,1.39-.15,1.6l-.022.375-.191.089a1.715,1.715,0,0,1-1.72-.128,4.03,4.03,0,0,1-1.254-1.521,6.063,6.063,0,0,1-.5-1.287c-.094-.308-.313-.964-.485-1.457a11.5,11.5,0,0,1-.9-3.72,4.692,4.692,0,0,1,.163-1.522.8.8,0,0,1,.291-.512,1.334,1.334,0,0,1,1.067-.521A.931.931,0,0,1,3-1258.554Zm26.339,3.1a11.91,11.91,0,0,1,1.8.488,10.241,10.241,0,0,0,1.817.46.658.658,0,0,1,.391.149,2.561,2.561,0,0,1,.926,2.576,17.569,17.569,0,0,1-.41,2.266,8.192,8.192,0,0,0-.219,1.588,1.71,1.71,0,0,1-.078.552c-.35,1.174-1.189,2.107-2.849,3.165-.535.338-2.29,1.348-2.546,1.46a4.968,4.968,0,0,1-2.865-.037c-.441-.113-.845-.238-1.952-.616-.491-.168-1.095-.363-1.345-.436l-.454-.134-.206-.21a1.757,1.757,0,0,1-.338-.467c-.332-.662-.372-1.378-.175-3.092a11.294,11.294,0,0,0,.125-1.839l-.019-.283.2-.235a13.913,13.913,0,0,1,1.3-1.238c.322-.262,1.132-.854,1.752-1.284a19.9,19.9,0,0,0,2.568-2.018,2.82,2.82,0,0,1,.773-.6,2.747,2.747,0,0,1,.529-.2A3.937,3.937,0,0,1,29.341-1255.457Zm-15.955.25c2.84,1.991,4.057,2.86,5.008,3.57.31.232.669.479.8.552a2.759,2.759,0,0,1,.882.872,2.678,2.678,0,0,1,.307.842,8.9,8.9,0,0,1,.075,2.223c-.031.777-.034,1.244-.016,1.543.053.75-.038,1.061-.41,1.406a3.011,3.011,0,0,1-1.411.589c-.169.033-.647.11-1.063.168a7.7,7.7,0,0,0-2.024.442,5.423,5.423,0,0,1-.923.229,5.508,5.508,0,0,1-.679.067,3.106,3.106,0,0,1-1.886-.476,13.329,13.329,0,0,1-1.9-1.174,17.883,17.883,0,0,1-2.246-1.939l-.866-.841-.1-.3a8.986,8.986,0,0,1-.347-3.259c.034-.7.05-.89.178-2.147l.059-.558.194-.2a6.889,6.889,0,0,1,3.825-1.57c.335-.055,2-.29,2.124-.3A2.315,2.315,0,0,1,13.386-1255.206Zm-7.294,7.821a4.755,4.755,0,0,1,1.292,1.058c.31.311.895.89,1.3,1.284a6.4,6.4,0,0,0,2.049,1.494,8.61,8.61,0,0,1,2.13,1.329,2.493,2.493,0,0,1,.779,1.5c.019.143.016.162-.053.2s-.1.043-.435-.061a15.187,15.187,0,0,1-4.782-2.586,23.816,23.816,0,0,1-3.281-3.22l-.344-.412.1-.177a1.291,1.291,0,0,1,.525-.5A1.079,1.079,0,0,1,6.092-1247.386Zm28.879.973a1.577,1.577,0,0,1,.735.338,14.052,14.052,0,0,1-1.389,1.5,18.349,18.349,0,0,1-6.243,4.019l-.7.284a1.336,1.336,0,0,1-.366.1c-.113,0-.116,0-.153-.165a2.04,2.04,0,0,1-.022-.439.957.957,0,0,1,.131-.506c.238-.47.716-.832,1.739-1.32a13.963,13.963,0,0,0,1.861-.951,5.016,5.016,0,0,1,.422-.278,7.886,7.886,0,0,0,1.326-1.091c1.254-1.186,1.717-1.476,2.415-1.528A1.959,1.959,0,0,1,34.971-1246.413Zm-14.153,2.878a12.7,12.7,0,0,1,3.394.79c.5.156,1.029.323,1.179.366a2.5,2.5,0,0,1,.416.162,1.484,1.484,0,0,1,.566.549.635.635,0,0,1,.069.4.871.871,0,0,1-.128.466,3.781,3.781,0,0,1-2.443,1.592,3.024,3.024,0,0,1-1.007.009,1.2,1.2,0,0,0-.5,0c-.188.018-.663.052-1.054.07a9.6,9.6,0,0,1-1.423-.012c-.391-.027-.97-.061-1.289-.079a8.489,8.489,0,0,1-3.328-.659,2.289,2.289,0,0,1-1.123-.918c-.282-.527-.282-.89,0-1.2.366-.4.913-.579,2.555-.857a9.683,9.683,0,0,0,1.849-.409,7.38,7.38,0,0,1,.732-.2,6.517,6.517,0,0,1,1.1-.1C20.424-1243.556,20.621-1243.544,20.818-1243.535Z" transform="translate(0 0)"/>
    </g>
  </g>
</svg>
