<?xml version="1.0" standalone="no"?>
<!DOCTYPE svg PUBLIC "-//W3C//DTD SVG 20010904//EN"
 "http://www.w3.org/TR/2001/REC-SVG-20010904/DTD/svg10.dtd">
<svg version="1.0" xmlns="http://www.w3.org/2000/svg"
 width="1280.000000pt" height="1274.000000pt" viewBox="0 0 1280.000000 1274.000000"
 preserveAspectRatio="xMidYMid meet">
<metadata>
Created by potrace 1.15, written by Peter Selinger 2001-2017
</metadata>
<g transform="translate(0.000000,1274.000000) scale(0.100000,-0.100000)"
fill="#000000" stroke="none">
<path d="M210 12584 c-199 -159 -210 -169 -210 -193 0 -22 201 -221 224 -221
11 0 37 12 58 26 21 15 40 25 41 23 329 -419 1856 -2411 1861 -2427 4 -12 18
-29 30 -37 29 -19 86 -98 86 -119 0 -8 10 -20 21 -27 34 -17 68 -62 69 -86 0
-13 10 -28 24 -35 29 -16 30 -17 267 -328 554 -726 1303 -1701 1398 -1820 59
-74 408 -524 776 -999 l668 -864 -53 -126 c-29 -69 -54 -136 -57 -148 -4 -16
379 -533 1713 -2310 945 -1258 1744 -2321 1776 -2360 94 -115 198 -175 420
-239 487 -140 1258 -218 2648 -269 223 -8 471 -17 551 -20 l146 -6 30 25 c17
14 38 44 47 67 78 196 68 608 -17 687 -21 19 -41 21 -362 31 -1136 37 -1883
99 -2375 197 -341 68 -501 136 -602 256 -24 29 -786 1033 -1692 2230 l-1648
2178 -155 2 -156 3 -1469 1910 c-808 1051 -1510 1964 -1561 2031 -51 66 -555
723 -1121 1459 l-1029 1338 47 42 c25 24 46 48 46 55 0 6 -37 51 -81 98 -109
116 -127 132 -148 132 -9 0 -105 -70 -211 -156z"/>
</g>
</svg>
