<?xml version="1.0" standalone="no"?>
<!DOCTYPE svg PUBLIC "-//W3C//DTD SVG 20010904//EN"
 "http://www.w3.org/TR/2001/REC-SVG-20010904/DTD/svg10.dtd">
<svg version="1.0" xmlns="http://www.w3.org/2000/svg"
 width="846.000000pt" height="1280.000000pt" viewBox="0 0 846.000000 1280.000000"
 preserveAspectRatio="xMidYMid meet">
<metadata>
Created by potrace 1.15, written by Peter Selinger 2001-2017
</metadata>
<g transform="translate(0.000000,1280.000000) scale(0.100000,-0.100000)"
fill="#000000" stroke="none">
<path d="M4980 12790 c-194 -36 -384 -170 -475 -333 -63 -115 -87 -205 -88
-332 -2 -134 11 -191 70 -315 39 -81 58 -108 132 -180 147 -146 302 -206 511
-198 358 15 632 289 648 649 6 133 -14 228 -68 337 -87 173 -232 295 -415 352
-78 24 -240 35 -315 20z m243 -280 c297 -92 389 -469 168 -691 -96 -95 -217
-135 -355 -117 -84 11 -157 48 -225 113 -165 158 -173 413 -18 582 108 117
274 161 430 113z"/>
<path d="M4300 12483 c-252 -32 -567 -100 -717 -154 -396 -142 -818 -421
-1061 -703 -131 -151 -233 -311 -292 -458 -95 -240 -100 -556 -13 -858 55
-192 171 -444 272 -590 155 -224 363 -436 561 -570 154 -105 380 -201 529
-226 111 -18 310 -18 378 0 156 42 240 129 251 261 7 87 -13 164 -71 278 -96
189 -233 299 -632 512 -278 148 -368 208 -476 316 -141 140 -201 291 -200 496
2 360 204 666 686 1039 116 91 533 382 654 458 51 33 115 76 141 97 46 36 107
106 99 113 -2 1 -51 -3 -109 -11z"/>
<path d="M5870 11014 c-149 -26 -221 -49 -340 -110 -188 -96 -340 -253 -435
-449 -76 -157 -90 -218 -90 -400 0 -116 4 -166 19 -220 121 -448 504 -745 960
-745 278 0 550 115 725 306 108 118 198 283 242 444 32 119 32 288 0 415 -52
200 -130 336 -275 480 -180 178 -398 270 -661 279 -66 3 -131 3 -145 0z"/>
<path d="M6562 8235 c-60 -14 -131 -58 -189 -117 -129 -132 -54 -344 227 -642
79 -84 225 -201 424 -343 256 -180 414 -302 508 -391 124 -118 123 -116 57
-175 -225 -203 -592 -437 -1209 -769 -286 -154 -322 -171 -465 -217 -71 -22
-150 -53 -175 -68 -44 -26 -44 -27 -20 -34 14 -4 117 -7 230 -8 253 -1 416 17
795 89 61 12 133 25 160 30 438 76 881 230 1135 395 207 134 347 316 402 524
66 253 -90 544 -513 956 -154 150 -270 248 -454 386 -285 212 -495 329 -660
368 -91 21 -200 28 -253 16z"/>
<path d="M3082 6665 c-200 -45 -348 -128 -572 -319 -272 -233 -564 -572 -977
-1138 -256 -349 -364 -547 -438 -805 -75 -257 17 -435 256 -498 82 -22 223
-19 300 6 142 46 243 119 504 364 569 536 931 946 1224 1389 100 152 166 278
205 398 76 228 73 394 -8 466 -18 15 -90 54 -161 86 -146 66 -219 77 -333 51z"/>
<path d="M4210 5815 c-241 -48 -525 -229 -754 -479 -255 -279 -788 -1022
-1317 -1836 -481 -740 -1801 -2832 -1904 -3016 -133 -239 -176 -323 -206 -398
-16 -43 -28 -80 -26 -82 2 -2 28 8 58 23 61 31 104 72 306 295 160 175 421
421 748 703 290 251 424 376 825 770 185 182 599 587 920 901 807 789 1040
1042 1392 1509 183 245 294 417 393 614 125 249 175 407 175 556 0 137 -39
249 -115 334 -87 95 -310 143 -495 106z"/>
</g>
</svg>
