<?xml version="1.0" standalone="no"?>
<!DOCTYPE svg PUBLIC "-//W3C//DTD SVG 20010904//EN"
 "http://www.w3.org/TR/2001/REC-SVG-20010904/DTD/svg10.dtd">
<svg version="1.0" xmlns="http://www.w3.org/2000/svg"
 width="1280.000000pt" height="1246.000000pt" viewBox="0 0 1280.000000 1246.000000"
 preserveAspectRatio="xMidYMid meet">
<metadata>
Created by potrace 1.15, written by Peter Selinger 2001-2017
</metadata>
<g transform="translate(0.000000,1246.000000) scale(0.100000,-0.100000)"
fill="#000000" stroke="none">
<path d="M750 11933 c-150 -100 -272 -219 -290 -282 -14 -51 -13 -61 15 -118
36 -71 178 -206 500 -473 149 -124 310 -263 359 -310 222 -213 3676 -3829
4241 -4440 175 -190 332 -360 348 -377 l31 -33 -1010 -1007 c-949 -948 -1771
-1779 -2039 -2063 -148 -157 -249 -277 -555 -659 -398 -498 -563 -673 -701
-746 -69 -36 -75 -37 -149 -33 -136 8 -239 79 -298 206 -26 55 -27 63 -28 252
-1 178 -3 200 -24 254 -30 79 -98 147 -163 165 -93 26 -212 -1 -297 -69 -138
-110 -247 -433 -225 -668 35 -372 356 -721 734 -797 108 -22 469 -16 569 9
103 26 215 74 314 133 254 153 452 340 1014 958 863 950 3290 3575 3304 3575
8 0 353 -371 1193 -1280 315 -342 471 -518 464 -523 -8 -5 -7 -7 4 -5 16 3
169 -160 989 -1052 185 -201 479 -522 654 -715 562 -618 760 -805 1014 -958
99 -59 211 -107 314 -133 100 -25 461 -31 569 -9 378 76 699 425 734 797 22
235 -87 558 -225 668 -85 68 -204 95 -297 69 -65 -18 -133 -86 -163 -165 -21
-54 -23 -76 -24 -254 -1 -189 -2 -197 -28 -252 -59 -127 -162 -198 -298 -206
-74 -4 -80 -3 -149 33 -138 73 -300 245 -701 745 -309 386 -408 504 -555 660
-268 284 -1090 1115 -2039 2063 l-1010 1007 31 33 c16 17 173 187 348 377 565
611 4019 4227 4241 4440 49 47 211 186 359 310 322 267 464 402 500 473 14 28
25 58 25 66 0 69 -53 141 -174 239 -194 158 -238 167 -347 65 -66 -61 -149
-187 -193 -291 -24 -59 -55 -108 -107 -170 -108 -129 -1063 -1081 -1799 -1792
-761 -736 -1175 -1148 -1551 -1545 -152 -159 -417 -427 -590 -595 -173 -167
-511 -497 -752 -733 l-438 -429 -287 283 c-158 156 -496 487 -751 734 -256
248 -588 581 -740 740 -375 396 -789 808 -1551 1545 -736 711 -1691 1663
-1799 1792 -52 62 -83 111 -107 170 -44 104 -127 230 -193 291 -85 80 -136 87
-221 30z"/>
<path d="M6353 2058 c-352 -29 -660 -300 -744 -653 -28 -120 -23 -323 11 -430
77 -242 245 -436 464 -535 307 -140 681 -80 928 149 412 382 351 1043 -126
1346 -154 98 -335 140 -533 123z"/>
</g>
</svg>
