<svg xmlns="http://www.w3.org/2000/svg" viewBox="0 0 538.64 148.61"><defs><style>.cls-1{fill:#413e3e;}</style></defs><g id="Layer_2" data-name="Layer 2"><g id="Layer_1-2" data-name="Layer 1"><path class="cls-1" d="M176.39,118.38H157a5.2,5.2,0,0,0-3.23,1.06,3.83,3.83,0,0,0-1.38,3.23,4.7,4.7,0,0,0,.37,2,3.43,3.43,0,0,0,1,1.32,4.19,4.19,0,0,0,1.48.73A6.22,6.22,0,0,0,157,127h11.1a12,12,0,0,1,3.2.49,9.56,9.56,0,0,1,3.34,1.68,9.46,9.46,0,0,1,2.63,3.25,11.28,11.28,0,0,1,1.06,5.18,11.17,11.17,0,0,1-1.06,5.16,9.43,9.43,0,0,1-2.63,3.22,9.77,9.77,0,0,1-3.34,1.69,12.36,12.36,0,0,1-3.2.48H144.74V142h19.81a4.83,4.83,0,0,0,1.82-.34,4.76,4.76,0,0,0,1.47-.92,4.2,4.2,0,0,0,1-1.39,4.4,4.4,0,0,0-1-4.95,4.68,4.68,0,0,0-3.29-1.24H153.49a13.43,13.43,0,0,1-3.25-.46A9.72,9.72,0,0,1,146.9,131a9.35,9.35,0,0,1-2.62-3.2,11,11,0,0,1-1.06-5.16,10.93,10.93,0,0,1,1.06-5.14,9.23,9.23,0,0,1,6-4.81,13,13,0,0,1,3.25-.46h22.9Z"/><path class="cls-1" d="M198.69,148.1h-7.56V112.26h21.06a12.8,12.8,0,0,1,4.35.71,8.9,8.9,0,0,1,3.36,2.17,9.7,9.7,0,0,1,2.17,3.59,17.12,17.12,0,0,1,0,10.09,9.78,9.78,0,0,1-2.17,3.59,8.9,8.9,0,0,1-3.36,2.17,12.8,12.8,0,0,1-4.35.71h-13.5Zm0-18.94h10.13a6.32,6.32,0,0,0,4-1.26,4.93,4.93,0,0,0,1.61-4.13c0-1.93-.53-3.31-1.61-4.14a6.38,6.38,0,0,0-4-1.25H198.69Z"/><path class="cls-1" d="M235.61,122.94a14.52,14.52,0,0,1,2.83-5.85,13.69,13.69,0,0,1,5.49-3.91,27.36,27.36,0,0,1,17.46,0,13.66,13.66,0,0,1,5.48,3.91,14.39,14.39,0,0,1,2.83,5.85,30.94,30.94,0,0,1,.81,7.24,30.55,30.55,0,0,1-.81,7.18,14.37,14.37,0,0,1-2.83,5.86,13.79,13.79,0,0,1-5.48,3.93,26.83,26.83,0,0,1-17.46,0,13.83,13.83,0,0,1-5.49-3.93,14.5,14.5,0,0,1-2.83-5.86,30.56,30.56,0,0,1-.8-7.18A31,31,0,0,1,235.61,122.94Zm11.73-4.23a7.48,7.48,0,0,0-3,2.81,10.45,10.45,0,0,0-1.34,4,36.19,36.19,0,0,0,0,9.3,10.51,10.51,0,0,0,1.34,4,7.54,7.54,0,0,0,3,2.81,11.33,11.33,0,0,0,5.34,1.06,11.18,11.18,0,0,0,5.32-1.06,7.55,7.55,0,0,0,3-2.81,10.5,10.5,0,0,0,1.33-4,36.19,36.19,0,0,0,0-9.3,10.44,10.44,0,0,0-1.33-4,7.48,7.48,0,0,0-3-2.81,11.18,11.18,0,0,0-5.32-1.06A11.33,11.33,0,0,0,247.34,118.71Z"/><path class="cls-1" d="M290.5,134v14.1H283V112.26h20.41a14.11,14.11,0,0,1,4.35.62,8.28,8.28,0,0,1,5.53,5.3,14.15,14.15,0,0,1,.76,4.95,13.14,13.14,0,0,1-.81,5,9.7,9.7,0,0,1-1.88,3.06,7.18,7.18,0,0,1-2.22,1.64,12,12,0,0,1-1.81.69L315,148.1h-9L298.71,134Zm0-5.66h8.85a10.13,10.13,0,0,0,2.21-.23,4.76,4.76,0,0,0,1.78-.81,4,4,0,0,0,1.19-1.52,5.82,5.82,0,0,0,.44-2.42,5.88,5.88,0,0,0-.44-2.4,4,4,0,0,0-1.19-1.54,4.76,4.76,0,0,0-1.78-.81,10.13,10.13,0,0,0-2.21-.23H290.5Z"/><path class="cls-1" d="M356.25,112.26v6.12H344.18V148.1h-7.56V118.38h-12v-6.12Z"/><path class="cls-1" d="M400,118.38H380.57a5.17,5.17,0,0,0-3.22,1.06,3.83,3.83,0,0,0-1.38,3.23,4.87,4.87,0,0,0,.36,2,3.55,3.55,0,0,0,1,1.32,4.22,4.22,0,0,0,1.47.73,6.27,6.27,0,0,0,1.75.23h11.11a12.05,12.05,0,0,1,3.2.49,9.65,9.65,0,0,1,3.34,1.68,9.43,9.43,0,0,1,2.62,3.25,11.16,11.16,0,0,1,1.06,5.18,11,11,0,0,1-1.06,5.16,9.41,9.41,0,0,1-2.62,3.22,9.86,9.86,0,0,1-3.34,1.69,12.43,12.43,0,0,1-3.2.48H368.36V142h19.81a4.79,4.79,0,0,0,1.82-.34,4.94,4.94,0,0,0,1.48-.92,4.51,4.51,0,0,0,1-1.39,4.28,4.28,0,0,0,.37-1.77,4.14,4.14,0,0,0-1.36-3.18,4.72,4.72,0,0,0-3.3-1.24H377.12a13.3,13.3,0,0,1-3.25-.46,9.63,9.63,0,0,1-3.34-1.64,9.26,9.26,0,0,1-2.63-3.2,11.17,11.17,0,0,1-1.06-5.16,11,11,0,0,1,1.06-5.14,9.28,9.28,0,0,1,6-4.81,12.83,12.83,0,0,1,3.25-.46H400Z"/><path class="cls-1" d="M414.76,112.26h21.79a13.52,13.52,0,0,1,3.89.57,11.43,11.43,0,0,1,3.41,1.68,8.32,8.32,0,0,1,2.4,2.77,8.07,8.07,0,0,1,.89,3.87,10.58,10.58,0,0,1-1.36,5.43,8.65,8.65,0,0,1-4.21,3.6,9.31,9.31,0,0,1,4.44,3.25,8.64,8.64,0,0,1,1.59,5.22,10,10,0,0,1-.92,4.59,7.68,7.68,0,0,1-2.46,2.9,9.7,9.7,0,0,1-3.55,1.52,19.33,19.33,0,0,1-4.12.44H414.76ZM438.09,126a4.4,4.4,0,0,0,1.27-3.34,4.34,4.34,0,0,0-1.27-3.32,5.47,5.47,0,0,0-3.89-1.2H422.31v9.08H434.2A5.43,5.43,0,0,0,438.09,126Zm0,15a4.4,4.4,0,0,0,1.27-3.37,4.34,4.34,0,0,0-1.27-3.32,5.52,5.52,0,0,0-3.89-1.19H422.31v9.07H434.2A5.52,5.52,0,0,0,438.09,141Z"/><path class="cls-1" d="M472.34,112.26H480L495.1,148.1H487l-3.5-8.71H468.8l-3.51,8.71h-8.06Zm-1.29,21.51h10.23L476.17,121Z"/><path class="cls-1" d="M514.18,134v14.1h-7.56V112.26H527a14.11,14.11,0,0,1,4.35.62,8.73,8.73,0,0,1,3.37,1.93,8.63,8.63,0,0,1,2.16,3.37,14.15,14.15,0,0,1,.76,4.95,13.35,13.35,0,0,1-.8,5,9.89,9.89,0,0,1-1.89,3.06,7.15,7.15,0,0,1-2.21,1.64,12.49,12.49,0,0,1-1.82.69l7.69,14.56h-9L522.38,134Zm0-5.66H523a10.13,10.13,0,0,0,2.21-.23,4.76,4.76,0,0,0,1.78-.81,4.06,4.06,0,0,0,1.2-1.52,5.83,5.83,0,0,0,.43-2.42,5.89,5.89,0,0,0-.43-2.4,4.13,4.13,0,0,0-1.2-1.54,4.76,4.76,0,0,0-1.78-.81,10.13,10.13,0,0,0-2.21-.23h-8.84Z"/><polygon class="cls-1" points="0 148.61 17.69 148.61 17.69 50.19 99.02 148.61 121.55 148.61 0 0 0 148.61"/><polygon class="cls-1" points="68.37 52.93 68.37 0 27.84 0 68.37 52.93"/><path class="cls-1" d="M390.73,81.15q7.08-12.87,7.08-30.26a64.87,64.87,0,0,0-6.37-29.12q-6.94-14-18.83-18.52A50.59,50.59,0,0,0,354.91,0h-50.4V76.43h23.08V17.7H355.2q10.62,0,15.85,11,4.11,8.78,4.11,22.51,0,12.47-3.82,20.67Q366.66,82,357,82l-12.14-.06V82h-45c-18.36,0-27.81-23.36-27.81-23.36a30.88,30.88,0,0,0,17.55-9,24.27,24.27,0,0,0,6.94-17.51A33.78,33.78,0,0,0,288.5,9.53,25.58,25.58,0,0,0,268.11,0H195.63V.07h-61v0l-.31,0H134v0a49.46,49.46,0,1,0,44,22.16H154.93a32.78,32.78,0,1,1-20.35-5.47v-.07H248.86q8.77,0,13.94,3.73A12.32,12.32,0,0,1,268,31.07c0,4.42-2.17,7.84-6.51,10.29a23.78,23.78,0,0,1-11.89,3H195.63V99h23.5V60.31h26.71s11.92,19.21,16.65,25.06C268.72,93.05,275.82,99,299.65,99h58.24a63.51,63.51,0,0,0,11.74-1Q383.09,95.29,390.73,81.15Z"/><rect class="cls-1" x="409.16" width="23.97" height="17.78"/><path class="cls-1" d="M497.75,0a50,50,0,0,0-19.12,3.82q-12,4.95-18.54,18.52-6,12.3-5.95,28.27,0,16.55,6.66,29,7.35,13.72,20,17.53A48.07,48.07,0,0,0,493.93,99h43.46V81.26H497.32q-9.48,0-14.72-9.48-4.53-8.07-4.53-19.68,0-13.73,3.54-22.23Q486.14,19,496.19,19h41.2V0Z"/><path class="cls-1" d="M406.67,67.49a31.18,31.18,0,0,1-2,4.29q-3.36,6.09-8.48,8.27c-.51,1.09-1.05,2.16-1.63,3.21-3.88,7.17-8.87,12.43-14.89,15.7h13.68a48,48,0,0,0,13.16-1.84,30.22,30.22,0,0,0,11.57-6.54A47.33,47.33,0,0,1,412,81.66,58.58,58.58,0,0,1,406.67,67.49Z"/><path class="cls-1" d="M455.91,82.21c-.16-.31-.3-.63-.46-.95h-3.11q-9.48,0-14.72-9.48-4.53-8.07-4.53-19.68c0-.89,0-1.76,0-2.62V21.58h-24v27.9h0c0,.38,0,.75,0,1.13q0,16.55,6.66,29,7.35,13.72,20,17.53A48.06,48.06,0,0,0,448.94,99H471.3C465.07,95.28,459.92,89.68,455.91,82.21Z"/></g></g></svg>