<?xml version="1.0" standalone="no"?>
<!DOCTYPE svg PUBLIC "-//W3C//DTD SVG 20010904//EN"
 "http://www.w3.org/TR/2001/REC-SVG-20010904/DTD/svg10.dtd">
<svg version="1.0" xmlns="http://www.w3.org/2000/svg"
 width="1280.000000pt" height="736.000000pt" viewBox="0 0 1280.000000 736.000000"
 preserveAspectRatio="xMidYMid meet">
<metadata>
Created by potrace 1.15, written by Peter Selinger 2001-2017
</metadata>
<g transform="translate(0.000000,736.000000) scale(0.100000,-0.100000)"
fill="#000000" stroke="none">
<path d="M6700 7354 c-25 -2 -108 -8 -185 -14 -1738 -132 -3209 -945 -4271
-2360 -327 -435 -536 -790 -909 -1541 -237 -478 -260 -546 -259 -759 2 -222
53 -590 109 -785 120 -413 271 -600 726 -898 359 -235 654 -386 1054 -539 581
-223 1145 -360 1695 -412 388 -37 1742 -56 1990 -28 376 43 718 123 1195 279
642 210 1134 442 1625 768 513 340 878 669 1165 1050 339 450 1013 1593 1093
1856 109 353 153 676 153 1134 1 249 -13 426 -43 565 -20 93 -82 265 -99 276
-5 3 -9 11 -9 19 0 18 -24 46 -165 195 -66 70 -154 163 -195 208 -43 45 -110
102 -155 132 -107 70 -545 287 -670 333 -278 101 -621 217 -710 240 -553 145
-661 165 -1025 191 -113 9 -239 20 -280 25 -160 22 -416 41 -665 51 -286 10
-1094 20 -1165 14z"/>
</g>
</svg>
