<?xml version="1.0" standalone="no"?>
<!DOCTYPE svg PUBLIC "-//W3C//DTD SVG 20010904//EN"
 "http://www.w3.org/TR/2001/REC-SVG-20010904/DTD/svg10.dtd">
<svg version="1.0" xmlns="http://www.w3.org/2000/svg"
 width="1280.000000pt" height="1280.000000pt" viewBox="0 0 1280.000000 1280.000000"
 preserveAspectRatio="xMidYMid meet">
<metadata>
Created by potrace 1.15, written by Peter Selinger 2001-2017
</metadata>
<g transform="translate(0.000000,1280.000000) scale(0.100000,-0.100000)"
fill="#000000" stroke="none">
<path d="M0 11283 l1 -178 27 -20 c15 -11 157 -130 317 -265 160 -134 585
-490 945 -789 360 -300 781 -651 935 -780 154 -129 282 -236 284 -238 3 -2
-23 -32 -57 -66 -34 -34 -62 -65 -62 -69 0 -3 20 0 45 8 25 7 74 20 110 29
l64 16 97 -81 c180 -153 247 -183 313 -144 29 17 64 63 80 106 10 26 5 33 -98
137 l-108 110 76 16 c82 18 240 55 471 111 396 96 500 115 785 144 225 23 321
24 550 10 429 -27 455 -31 735 -99 314 -76 397 -91 535 -91 342 0 523 141 485
378 -35 214 -244 389 -533 446 -252 50 -843 76 -1092 47 -284 -33 -490 -67
-815 -137 -103 -22 -366 -109 -535 -178 -294 -120 -419 -197 -773 -477 -47
-38 -54 -41 -70 -27 -9 8 -460 384 -1002 834 -542 451 -1142 953 -1335 1115
-192 162 -356 298 -362 303 -10 6 -13 -31 -13 -171z"/>
<path d="M8172 10709 c-308 -55 -596 -276 -722 -552 -56 -123 -75 -218 -74
-362 1 -155 21 -243 88 -380 156 -319 458 -516 818 -532 143 -7 238 5 363 44
342 108 583 390 651 764 15 79 15 105 6 180 -21 157 -78 300 -177 447 -115
173 -324 314 -552 373 -90 23 -317 34 -401 18z"/>
<path d="M8367 8469 c-124 -29 -239 -145 -295 -299 -19 -52 -24 -86 -25 -170
-2 -166 29 -270 153 -515 293 -577 712 -1080 1227 -1473 273 -208 527 -345
790 -427 l91 -29 -34 -39 c-39 -46 -67 -122 -62 -169 3 -32 5 -33 78 -50 41
-10 85 -16 97 -13 12 3 69 36 127 75 114 76 144 91 172 85 11 -2 69 -14 129
-26 61 -11 128 -25 150 -29 22 -5 41 -7 43 -6 1 2 -42 43 -97 92 -55 49 -99
92 -98 96 1 4 263 197 583 430 319 233 766 558 992 723 l411 300 0 172 1 172
-307 -227 c-613 -453 -1934 -1412 -1945 -1412 -4 0 -65 53 -136 118 -70 64
-204 185 -297 268 -272 243 -398 380 -586 639 -138 190 -278 413 -352 561 -66
132 -106 233 -196 498 -45 132 -100 274 -122 316 -74 139 -198 262 -325 325
-53 26 -99 30 -167 14z"/>
<path d="M4495 7873 c-54 -6 -149 -35 -197 -59 -67 -34 -110 -74 -143 -136
-25 -45 -29 -64 -29 -123 2 -111 71 -295 171 -453 169 -266 508 -648 860 -970
61 -56 166 -165 233 -242 l120 -140 -13 -33 c-21 -49 -88 -101 -161 -125 -34
-11 -132 -34 -217 -51 -429 -83 -744 -185 -1234 -399 -207 -90 -845 -388 -845
-394 0 -2 111 0 247 4 239 6 413 16 688 38 72 6 182 15 245 20 142 12 496 36
730 49 109 7 252 24 380 46 703 119 822 150 969 249 72 48 77 54 95 110 l18
58 59 -58 c57 -57 89 -106 89 -138 0 -18 -76 -58 -217 -115 -126 -50 -196 -71
-426 -126 -400 -97 -719 -221 -1502 -586 l-309 -144 124 -3 c69 -2 244 4 390
13 251 14 336 21 638 45 360 29 511 39 657 45 229 10 564 59 998 146 246 50
303 67 397 123 122 72 137 89 168 186 23 75 26 101 26 230 0 153 -14 237 -68
400 -127 392 -430 924 -767 1345 -252 317 -455 486 -671 562 -61 22 -98 27
-228 33 -99 4 -162 11 -175 19 -11 7 -34 32 -52 54 -53 69 -174 199 -248 267
-136 123 -304 216 -444 246 -60 12 -276 17 -356 7z"/>
<path d="M0 6172 c0 -155 1 -159 22 -169 13 -6 466 -273 1008 -593 542 -321
1946 -1150 3120 -1843 2570 -1516 4243 -2506 4326 -2558 339 -214 802 -240
1010 -57 108 95 116 196 21 252 -48 29 -58 27 -224 -60 -112 -58 -113 -58
-193 -57 -110 3 -206 31 -368 109 l-137 66 100 48 c109 53 154 90 185 150 33
64 27 106 -20 152 -28 26 -50 38 -70 38 -17 0 -88 -30 -166 -70 -118 -61 -143
-70 -189 -70 -113 0 -317 63 -495 152 -69 35 -726 418 -1460 852 -4711 2784
-6459 3816 -6464 3816 -3 0 -6 -71 -6 -158z"/>
</g>
</svg>
