<?xml version="1.0" standalone="no"?>
<!DOCTYPE svg PUBLIC "-//W3C//DTD SVG 20010904//EN"
 "http://www.w3.org/TR/2001/REC-SVG-20010904/DTD/svg10.dtd">
<svg version="1.0" xmlns="http://www.w3.org/2000/svg"
 width="1280.000000pt" height="914.000000pt" viewBox="0 0 1280.000000 914.000000"
 preserveAspectRatio="xMidYMid meet">
<metadata>
Created by potrace 1.15, written by Peter Selinger 2001-2017
</metadata>
<g transform="translate(0.000000,914.000000) scale(0.100000,-0.100000)"
fill="#000000" stroke="none">
<path d="M7165 9133 c-263 -36 -513 -179 -667 -383 -64 -84 -141 -242 -170
-350 -19 -73 -23 -109 -22 -250 0 -150 3 -173 27 -255 116 -386 411 -646 804
-711 304 -50 635 64 854 293 267 280 344 664 206 1036 -77 210 -266 416 -477
522 -162 82 -385 121 -555 98z"/>
<path d="M675 8259 c-183 -27 -369 -128 -506 -277 -115 -125 -162 -265 -162
-492 -1 -119 3 -161 22 -235 92 -363 405 -696 801 -853 74 -29 149 -50 263
-72 88 -17 329 -15 410 5 135 32 278 98 378 176 l36 28 64 -37 c35 -21 132
-83 214 -138 83 -56 233 -147 335 -204 207 -115 461 -265 774 -454 121 -73
233 -133 264 -142 61 -18 131 -15 177 7 29 14 30 17 33 87 2 41 7 72 13 72 6
0 63 -9 127 -20 261 -45 371 -52 859 -57 535 -6 565 -4 958 67 28 5 91 16 140
25 302 53 529 111 659 167 147 65 306 191 352 280 30 57 44 123 44 203 0 131
-40 228 -125 303 -59 52 -119 72 -214 72 -159 -1 -286 -42 -611 -200 -135 -66
-288 -136 -340 -155 -552 -211 -1183 -309 -1768 -277 -277 16 -408 31 -652 77
-268 51 -319 71 -625 248 -149 86 -463 281 -503 313 -2 1 8 58 22 126 38 185
38 198 22 294 -23 131 -49 213 -104 327 -64 133 -125 220 -239 338 -205 212
-458 346 -743 394 -92 16 -280 18 -375 4z"/>
<path d="M9655 7039 c-388 -39 -616 -180 -592 -363 10 -76 75 -185 156 -267
63 -62 89 -81 153 -107 132 -55 311 -101 669 -172 497 -99 649 -143 852 -247
253 -129 393 -284 453 -498 48 -175 16 -566 -73 -875 -73 -255 -205 -530 -339
-705 l-34 -45 38 0 c60 0 135 45 241 144 54 50 142 131 194 179 390 358 613
894 594 1430 -10 292 -58 458 -185 637 -56 79 -193 222 -287 300 -258 212
-702 415 -1140 520 -311 75 -479 92 -700 69z"/>
<path d="M1010 5879 c-112 -44 -185 -114 -237 -225 -25 -52 -28 -71 -28 -160
0 -96 2 -103 38 -176 178 -362 702 -282 770 117 29 171 -68 351 -230 428 -59
27 -81 32 -163 34 -78 3 -105 -1 -150 -18z m198 -263 c90 -47 103 -158 27
-225 -65 -57 -166 -36 -206 41 -23 44 -24 79 -5 116 16 30 53 66 76 75 28 10
81 7 108 -7z"/>
<path d="M9200 4462 c-200 -52 -314 -204 -361 -478 -20 -120 -6 -487 25 -669
100 -575 279 -1159 514 -1670 121 -264 210 -432 270 -506 241 -301 619 -505
1192 -643 53 -12 705 -159 830 -186 19 -4 179 -40 355 -80 375 -84 464 -100
565 -100 91 0 130 10 178 47 l36 27 -40 18 c-21 9 -172 60 -334 113 -768 251
-893 298 -1210 456 -296 148 -472 261 -647 417 -374 334 -510 749 -553 1687
-31 710 -53 923 -112 1113 -43 141 -139 293 -222 354 -142 103 -327 141 -486
100z"/>
<path d="M8106 4400 c-114 -18 -213 -53 -371 -129 -321 -156 -559 -318 -1135
-776 -118 -94 -521 -414 -895 -710 -374 -296 -732 -580 -795 -630 -63 -50
-432 -343 -820 -650 -388 -308 -905 -719 -1150 -914 -460 -368 -556 -439 -672
-497 -37 -19 -68 -38 -67 -42 0 -4 13 -17 29 -30 l28 -22 109 39 c317 114 479
194 1263 626 327 180 872 478 1210 662 1289 703 1978 1084 2845 1572 455 257
582 333 735 439 221 153 336 322 348 512 4 64 0 87 -23 155 -97 283 -226 390
-480 400 -55 2 -126 0 -159 -5z"/>
</g>
</svg>
