<?xml version="1.0" standalone="no"?>
<!DOCTYPE svg PUBLIC "-//W3C//DTD SVG 20010904//EN"
 "http://www.w3.org/TR/2001/REC-SVG-20010904/DTD/svg10.dtd">
<svg version="1.0" xmlns="http://www.w3.org/2000/svg"
 width="624.000000pt" height="624.000000pt" viewBox="0 0 624.000000 624.000000"
 preserveAspectRatio="xMidYMid meet">
<metadata>
Created by potrace 1.14, written by Peter Selinger 2001-2017
</metadata>
<g transform="translate(0.000000,624.000000) scale(0.100000,-0.100000)"
fill="#000000" stroke="none">
<path d="M1750 6227 c0 -8 46 -70 82 -111 10 -11 30 -38 45 -60 15 -23 30 -43
34 -46 3 -3 36 -45 73 -95 38 -49 72 -91 77 -93 5 -2 9 -10 9 -17 0 -7 3 -15
8 -17 4 -1 27 -30 52 -63 25 -33 47 -62 50 -65 6 -6 94 -122 125 -166 11 -15
25 -32 30 -38 6 -6 31 -38 55 -71 25 -33 51 -66 57 -75 7 -8 59 -76 116 -150
56 -74 139 -182 183 -240 44 -58 118 -154 164 -215 46 -60 87 -112 90 -115 3
-3 39 -50 80 -105 41 -55 80 -107 87 -115 7 -8 48 -62 93 -120 44 -58 86 -112
93 -120 7 -8 26 -34 42 -57 17 -24 35 -43 40 -43 8 0 12 181 5 200 -1 3 -1 10
0 15 7 27 4 778 -3 782 -4 2 -4 9 -1 15 10 16 11 779 1 785 -4 2 -4 9 0 15 7
13 11 387 3 389 -25 6 -1690 2 -1690 -4z"/>
<path d="M570 3118 l0 -3118 373 0 372 0 0 2060 c0 1133 3 2060 7 2060 5 0 8
-3 8 -7 0 -5 14 -22 30 -40 17 -18 30 -35 30 -38 0 -3 10 -16 23 -28 12 -12
34 -38 49 -57 14 -19 34 -45 44 -56 11 -12 35 -41 55 -65 129 -156 198 -240
229 -278 19 -24 40 -48 45 -55 6 -6 42 -49 80 -96 39 -47 74 -90 80 -96 5 -6
24 -28 40 -49 17 -22 40 -49 52 -62 12 -12 27 -31 35 -41 14 -20 81 -101 113
-138 11 -12 31 -37 45 -54 14 -18 30 -37 35 -44 12 -13 94 -113 115 -140 17
-21 74 -89 130 -156 21 -25 82 -99 136 -165 54 -66 102 -122 106 -123 5 -2 6
-8 2 -13 -3 -5 -1 -9 4 -9 5 0 36 -33 68 -72 33 -40 95 -116 139 -169 44 -53
96 -116 114 -139 19 -23 40 -48 45 -54 6 -6 27 -31 47 -56 33 -40 54 -65 89
-107 5 -6 139 -168 296 -360 278 -337 396 -479 474 -573 47 -56 137 -166 210
-255 30 -37 63 -77 74 -89 10 -11 35 -41 55 -66 20 -25 41 -50 46 -56 6 -7 66
-80 135 -163 l124 -151 474 0 474 0 -68 83 c-114 137 -175 212 -209 255 -56
70 -131 157 -137 160 -5 2 -8 10 -8 17 0 7 -4 15 -9 17 -5 2 -62 68 -126 148
-65 80 -120 147 -124 150 -4 3 -20 23 -36 45 -17 22 -37 47 -45 55 -9 8 -31
35 -50 60 -19 25 -55 70 -81 100 -44 53 -454 554 -612 749 -43 53 -86 105 -95
116 -18 22 -137 168 -162 199 -8 11 -29 35 -46 55 -16 20 -90 110 -164 201
-74 91 -157 192 -184 226 -28 33 -67 80 -86 104 -30 37 -105 129 -264 323 -17
22 -36 44 -41 50 -6 7 -39 48 -75 92 -36 44 -69 85 -75 92 -27 33 -40 49 -122
150 -48 59 -90 110 -93 113 -3 3 -44 52 -90 110 -47 58 -92 112 -100 121 -8 9
-19 23 -25 31 -5 9 -71 90 -145 180 -74 89 -142 171 -150 182 -8 10 -19 23
-25 30 -5 6 -28 34 -50 61 -21 28 -42 52 -45 55 -3 3 -41 50 -85 105 -44 54
-87 106 -95 115 -8 9 -28 33 -45 54 -47 61 -127 158 -157 191 -16 17 -28 33
-28 37 0 4 -8 15 -18 25 -16 15 -194 232 -332 403 -19 24 -61 75 -93 114 -32
39 -64 78 -71 86 -28 36 -151 185 -156 190 -3 3 -21 25 -40 50 -19 25 -37 47
-40 50 -3 3 -24 28 -45 55 -22 28 -43 52 -46 55 -3 3 -27 32 -54 65 -26 33
-51 62 -54 65 -3 3 -18 21 -33 42 -15 20 -33 42 -40 50 -7 7 -25 29 -40 48
-15 19 -40 51 -57 70 l-31 35 0 -3117z"/>
</g>
</svg>
