<svg id="Layer_1" enable-background="new 0 0 512 512" height="512" viewBox="0 0 512 512" width="512" xmlns="http://www.w3.org/2000/svg"><g><path d="m256 512c-11.735 0-23.369-3.918-32.317-10.51-10.348 4.052-22.6 4.823-33.941 1.779-11.337-3.035-21.561-9.827-28.495-18.508-11.043 1.236-23.077-1.192-33.248-7.065-10.166-5.868-18.281-15.076-22.731-25.257-10.982-1.665-21.976-7.119-30.28-15.416-8.304-8.311-13.759-19.308-15.425-30.29-10.182-4.451-19.39-12.566-25.259-22.734-5.873-10.169-8.299-22.204-7.063-33.246-8.681-6.935-15.474-17.16-18.511-28.503-3.042-11.334-2.271-23.585 1.781-33.933-6.594-8.948-10.511-20.581-10.511-32.317 0-11.742 3.917-23.376 10.51-32.323-4.051-10.352-4.822-22.606-1.779-33.944 3.035-11.337 9.827-21.56 18.508-28.494-1.236-11.043 1.191-23.077 7.068-33.245 5.864-10.166 15.071-18.283 25.255-22.735 1.665-10.982 7.119-21.976 15.416-30.281 8.311-8.303 19.308-13.759 30.29-15.425 4.451-10.182 12.566-19.39 22.734-25.259 10.169-5.874 22.204-8.3 33.247-7.063 6.936-8.683 17.16-15.475 28.502-18.511 11.335-3.042 23.586-2.271 33.935 1.782 8.946-6.586 20.579-10.502 32.314-10.502 11.742 0 23.376 3.915 32.32 10.503 10.352-4.052 22.608-4.823 33.946-1.781 11.335 3.035 21.558 9.828 28.493 18.509 11.044-1.237 23.078 1.191 33.247 7.068 10.165 5.863 18.282 15.072 22.734 25.254 10.983 1.665 21.977 7.119 30.281 15.416 8.304 8.311 13.759 19.307 15.425 30.291 10.184 4.452 19.393 12.572 25.261 22.745 5.873 10.161 8.298 22.193 7.062 33.236 8.681 6.936 15.475 17.16 18.511 28.5 3.041 11.333 2.27 23.586-1.783 33.938 6.588 8.945 10.503 20.579 10.503 32.321 0 11.736-3.916 23.368-10.502 32.315 4.052 10.349 4.823 22.602 1.78 33.943-3.035 11.335-9.828 21.558-18.509 28.493 1.235 11.042-1.19 23.079-7.065 33.25-5.868 10.166-15.076 18.281-25.257 22.731-1.666 10.982-7.119 21.977-15.416 30.281-8.311 8.303-19.308 13.758-30.29 15.424-4.452 10.185-12.572 19.394-22.746 25.262-10.16 5.873-22.193 8.299-33.234 7.062-6.935 8.681-17.159 15.474-28.502 18.51-11.333 3.041-23.585 2.27-33.936-1.781-8.947 6.592-20.582 10.51-32.323 10.51z" fill="#c45300"/><path d="m256 0c11.742 0 23.376 3.915 32.32 10.503 10.352-4.052 22.608-4.823 33.946-1.781 11.335 3.035 21.558 9.828 28.493 18.509 11.044-1.237 23.078 1.191 33.247 7.068 10.165 5.863 18.282 15.072 22.734 25.254 10.983 1.665 21.977 7.119 30.281 15.416 8.304 8.311 13.759 19.307 15.425 30.291 10.184 4.452 19.393 12.572 25.261 22.745 5.873 10.161 8.298 22.193 7.062 33.236 8.681 6.936 15.475 17.16 18.511 28.5 3.041 11.333 2.27 23.586-1.783 33.938 6.588 8.945 10.503 20.579 10.503 32.321 0 11.736-3.916 23.368-10.502 32.315 4.052 10.349 4.823 22.602 1.78 33.943-3.035 11.335-9.828 21.558-18.509 28.493 1.235 11.042-1.19 23.079-7.065 33.25-5.868 10.166-15.076 18.281-25.257 22.731-1.666 10.982-7.119 21.977-15.416 30.281-8.311 8.303-19.308 13.758-30.29 15.424-4.452 10.185-12.572 19.394-22.746 25.262-10.16 5.873-22.193 8.299-33.234 7.062-6.935 8.681-17.159 15.474-28.502 18.51-11.333 3.041-23.585 2.27-33.936-1.781-8.947 6.592-20.582 10.51-32.323 10.51z" fill="#8a2a00"/><path d="m107.582 358.974c-5.858-5.858-5.858-15.355 0-21.213l230.188-230.187c5.857-5.858 15.355-5.858 21.213 0s5.858 15.355 0 21.213l-230.189 230.187c-5.858 5.859-15.356 5.857-21.212 0z" fill="#8a2a00"/><path d="m324.835 414.379c-5.858-5.858-5.858-15.355 0-21.213l68.34-68.339c5.857-5.858 15.355-5.857 21.213 0 5.858 5.858 5.858 15.355 0 21.213l-68.34 68.339c-5.848 5.849-15.346 5.868-21.213 0z" fill="#500000"/><g fill="#8a2a00"><path d="m218.916 429.418c-5.858-5.858-5.858-15.355 0-21.213l189.298-189.297c5.857-5.858 15.355-5.858 21.213 0s5.858 15.355 0 21.213l-189.299 189.297c-5.847 5.849-15.345 5.867-21.212 0z"/><path d="m97.62 187.165c-5.858-5.858-5.858-15.355 0-21.213l68.34-68.339c5.857-5.858 15.355-5.858 21.213 0s5.858 15.355 0 21.213l-68.34 68.339c-5.848 5.848-15.346 5.867-21.213 0z"/><path d="m153.026 404.418c-5.858-5.858-5.858-15.355 0-21.213l230.187-230.187c5.857-5.858 15.355-5.858 21.213 0s5.858 15.355 0 21.213l-230.187 230.187c-5.858 5.86-15.357 5.857-21.213 0z"/><path d="m82.582 293.084c-5.858-5.858-5.858-15.355 0-21.213l189.297-189.297c5.857-5.858 15.355-5.858 21.213 0s5.858 15.355 0 21.213l-189.298 189.297c-5.858 5.86-15.356 5.857-21.212 0z"/></g><path d="m271.879 82.574-15.879 15.879v42.426l37.092-37.092c5.858-5.858 5.858-15.355 0-21.213-5.857-5.859-15.355-5.859-21.213 0z" fill="#500000"/><path d="m256 413.546 173.426-173.426c5.858-5.858 5.858-15.355 0-21.213s-15.356-5.858-21.213 0l-152.213 152.214z" fill="#500000"/><path d="m383.213 153.019-127.213 127.213v42.426l148.426-148.426c5.858-5.858 5.858-15.355 0-21.213-5.857-5.859-15.355-5.859-21.213 0z" fill="#500000"/><path d="m337.769 107.574-81.769 81.769v42.426l102.982-102.982c5.858-5.858 5.858-15.355 0-21.213-5.857-5.859-15.356-5.859-21.213 0z" fill="#500000"/></g></svg>