<svg clip-rule="evenodd" fill-rule="evenodd" height="512" stroke-linejoin="round" stroke-miterlimit="2" viewBox="0 0 64 64" width="512" xmlns="http://www.w3.org/2000/svg"><g transform="translate(-704 -448)"><g transform="translate(512 128)"><path d="m240 376-12-48h16l4.75 19 .25 5 2.25 5 4.75 19z" fill="#005af0"/></g><g transform="translate(646 124)"><path d="m98 372 8-8 8 8-8 8z" fill="#001130"/></g><g transform="matrix(1 0 0 1.125 640 80)"><path d="m68 369.778c0-.472-.211-.924-.586-1.257-.375-.334-.884-.521-1.414-.521s-1.039.187-1.414.521c-.375.333-.586.785-.586 1.257v14.222h4z" fill="#001130"/></g><path d="m763.25 485h-16l-2.5-10h16z" fill="#ffc800"/><g transform="matrix(1.143 0 0 .571 646.857 297.143)"><path d="m78 264-4.375 8.75-4.375-8.75h-19.25v33.25l4.375 8.75-4.375 8.75v33.25h19.25l4.375-8.75 4.375 8.75h21l-8.312-33.25-4.376-8.75.001-8.75z" fill="#0081f8"/></g><path d="m704 467h22v-19h10v19h9.5l5 10h-14.5v19h-10v-19h-22z" fill="#ffe646"/></g></svg>